<svg width="89" height="45" viewBox="0 0 89 45" fill="none" xmlns="http://www.w3.org/2000/svg">
<rect x="0.917358" y="1.13831" width="87" height="43" rx="21.5" fill="#5648F1" stroke="white"/>
<path d="M24.9958 28.1414H31.3247V26.5952H26.8403V17.9595H24.9958V28.1414ZM36.1769 28.2905C38.4142 28.2905 39.836 26.7145 39.836 24.353C39.836 21.9865 38.4142 20.4056 36.1769 20.4056C33.9397 20.4056 32.5179 21.9865 32.5179 24.353C32.5179 26.7145 33.9397 28.2905 36.1769 28.2905ZM36.1869 26.8487C34.949 26.8487 34.3424 25.7451 34.3424 24.348C34.3424 22.951 34.949 21.8324 36.1869 21.8324C37.4049 21.8324 38.0115 22.951 38.0115 24.348C38.0115 25.7451 37.4049 26.8487 36.1869 26.8487ZM44.6846 31.1343C46.7478 31.1343 48.2691 30.1897 48.2691 28.2656V20.505H46.4942V21.7678H46.3948C46.1214 21.2159 45.5496 20.4056 44.2023 20.4056C42.4374 20.4056 41.0503 21.7877 41.0503 24.2983C41.0503 26.7891 42.4374 28.032 44.1974 28.032C45.5049 28.032 46.1164 27.331 46.3948 26.7692H46.4843V28.2159C46.4843 29.3097 45.7386 29.772 44.7144 29.772C43.6306 29.772 43.1533 29.26 42.9346 28.8424L41.3138 29.2351C41.642 30.2742 42.7407 31.1343 44.6846 31.1343ZM44.6995 26.6201C43.5113 26.6201 42.8849 25.6953 42.8849 24.2884C42.8849 22.9013 43.5013 21.8821 44.6995 21.8821C45.8579 21.8821 46.4942 22.8416 46.4942 24.2884C46.4942 25.7451 45.8479 26.6201 44.6995 26.6201ZM53.5862 28.1414H55.3859V20.505H53.5862V28.1414ZM54.491 19.4212C55.0628 19.4212 55.5301 18.9837 55.5301 18.4468C55.5301 17.9049 55.0628 17.4674 54.491 17.4674C53.9143 17.4674 53.447 17.9049 53.447 18.4468C53.447 18.9837 53.9143 19.4212 54.491 19.4212ZM59.0363 23.6669C59.0363 22.5632 59.7025 21.9269 60.6521 21.9269C61.5818 21.9269 62.1386 22.5384 62.1386 23.5576V28.1414H63.9383V23.2791C63.9433 21.4496 62.8992 20.4056 61.3233 20.4056C60.1798 20.4056 59.3943 20.9524 59.0463 21.8026H58.9568V20.505H57.2366V28.1414H59.0363V23.6669Z" fill="white"/>
</svg>
