<svg width="290" height="81" viewBox="0 0 290 81" fill="none" xmlns="http://www.w3.org/2000/svg">
<circle cx="48.7686" cy="38.5073" r="24.3604" fill="white"/>
<path d="M51.4075 27.1884C51.4901 26.5276 51.1272 25.8915 50.5164 25.6264C49.9056 25.3612 49.1931 25.5305 48.7668 26.042L37.2619 39.8479C36.8892 40.2951 36.8089 40.9174 37.0558 41.4445C37.3027 41.9715 37.8322 42.3082 38.4142 42.3082H47.0694L46.1297 49.8261C46.0471 50.4868 46.41 51.123 47.0208 51.3881C47.6316 51.6533 48.3442 51.484 48.7705 50.9724L60.2754 37.1665C60.648 36.7194 60.7283 36.0971 60.4814 35.57C60.2346 35.0429 59.7051 34.7063 59.123 34.7063H50.4678L51.4075 27.1884Z" stroke="#5648F1" stroke-width="3" stroke-linecap="round" stroke-linejoin="round"/>
<path d="M92.2898 44.2294C89.3918 44.2294 87.3218 41.9754 87.3218 38.7784C87.3218 35.5814 89.3688 33.3274 92.2898 33.3274C94.4058 33.3274 96.2458 34.7764 96.7058 36.8004L100.34 36.3864C99.7418 32.6834 96.3378 30.0154 92.1978 30.0154C87.1378 30.0154 83.4578 33.6954 83.4578 38.7784C83.4578 43.8614 87.1378 47.5414 92.1978 47.5414C96.3838 47.5414 99.7878 44.9424 100.34 41.3314L96.7288 40.8484C96.2228 42.8034 94.3598 44.2294 92.2898 44.2294ZM113.257 46.9664V35.1904H109.807V41.8144C109.807 43.3094 108.703 44.3904 107.346 44.3904C105.989 44.3904 105.161 43.3784 105.161 41.9524V35.1904H101.711V42.5504C101.711 45.3794 103.505 47.4264 106.15 47.4264C107.691 47.4264 109.071 46.6444 109.899 45.3564V46.9664H113.257ZM115.225 29.9004V46.9664H118.675V29.9004H115.225ZM121.547 43.1484C121.547 45.6554 123.065 47.4264 125.411 47.4264C126.147 47.4264 127.067 47.2884 127.78 47.0584V44.2754C127.389 44.3904 126.883 44.4594 126.561 44.4594C125.595 44.4594 124.997 43.7924 124.997 42.8034V37.8124H127.665V35.1904H124.997V32.2234H122.099L121.708 35.1904H119.891V37.8124H121.547V43.1484ZM140.556 46.9664V35.1904H137.106V41.8144C137.106 43.3094 136.002 44.3904 134.645 44.3904C133.288 44.3904 132.46 43.3784 132.46 41.9524V35.1904H129.01V42.5504C129.01 45.3794 130.804 47.4264 133.449 47.4264C134.99 47.4264 136.37 46.6444 137.198 45.3564V46.9664H140.556ZM142.548 35.1904V46.9664H145.998V40.7104C145.998 38.9394 146.987 37.6974 148.482 37.6974C148.988 37.6974 149.77 37.8354 150.414 38.1114V35.0524C149.954 34.8684 149.471 34.7534 149.011 34.7534C147.723 34.7534 146.55 35.5124 145.86 36.6854V35.1904H142.548ZM154.421 39.9744C154.72 38.4104 155.778 37.3754 157.296 37.3754C158.86 37.3754 160.01 38.4794 160.217 39.9744H154.421ZM150.879 40.9864C150.879 44.7814 153.547 47.4264 157.342 47.4264C160.217 47.4264 162.701 45.7474 163.276 43.4474L160.171 43.0104C159.803 44.0454 158.722 44.7814 157.434 44.7814C155.87 44.7814 154.743 43.7004 154.444 42.0444L163.667 42.0674C163.713 41.8144 163.713 41.3314 163.713 41.0324C163.713 37.3064 161.137 34.7304 157.365 34.7304C153.57 34.7304 150.879 37.3064 150.879 40.9864ZM169.374 46.9664V40.0434H176.136V46.9664H180V30.5904H176.136V36.9154H169.374V30.5904H165.51V46.9664H169.374ZM188.339 44.3904C186.545 44.3904 185.257 42.9874 185.257 41.0784C185.257 39.1694 186.545 37.7664 188.339 37.7664C190.133 37.7664 191.421 39.1694 191.421 41.0784C191.421 42.9874 190.133 44.3904 188.339 44.3904ZM191.444 36.8234C190.524 35.5124 189.121 34.7304 187.442 34.7304C184.13 34.7304 181.807 37.3524 181.807 41.0784C181.807 44.8044 184.13 47.4264 187.442 47.4264C189.121 47.4264 190.524 46.6444 191.444 45.3334V46.9664H194.894V35.1904H191.444V36.8234ZM202.767 34.7304C199.041 34.7304 196.35 37.3984 196.35 41.0784C196.35 44.7584 199.064 47.4264 202.767 47.4264C205.803 47.4264 208.379 45.4714 208.816 42.7574L205.596 42.3434C205.274 43.6084 204.147 44.5284 202.79 44.5284C201.088 44.5284 199.8 43.0794 199.8 41.0784C199.8 39.0774 201.111 37.6284 202.79 37.6284C204.101 37.6284 205.274 38.5484 205.573 39.8134L208.793 39.3994C208.425 36.6854 205.849 34.7304 202.767 34.7304ZM210.232 46.9664H213.682V41.9064L217.799 46.9664H222.008L216.741 40.7104L221.847 35.1904H217.661L213.682 39.5374V29.9004H210.232V46.9664Z" fill="white"/>
</svg>
