<svg width="89" height="45" viewBox="0 0 89 45" fill="none" xmlns="http://www.w3.org/2000/svg">
<rect x="0.417358" y="0.638306" width="88" height="44" rx="22" fill="white"/>
<path d="M25.5732 20.7585H27.348C27.3132 19.0384 25.8466 17.8203 23.679 17.8203C21.5412 17.8203 19.9354 19.0235 19.9404 20.8232C19.9404 22.2848 20.9794 23.125 22.6548 23.5576L23.8132 23.8558C24.9119 24.1343 25.6378 24.4773 25.6428 25.2678C25.6378 26.1378 24.8125 26.7195 23.6094 26.7195C22.456 26.7195 21.5611 26.2024 21.4865 25.1335H19.6719C19.7465 27.157 21.2529 28.2955 23.6243 28.2955C26.0654 28.2955 27.4823 27.0774 27.4872 25.2827C27.4823 23.5178 26.0256 22.7124 24.4943 22.3495L23.5398 22.1108C22.7046 21.912 21.7997 21.559 21.8097 20.7088C21.8146 19.9432 22.5007 19.3814 23.6541 19.3814C24.7529 19.3814 25.4787 19.8935 25.5732 20.7585ZM29.052 28.1414H30.8518V20.505H29.052V28.1414ZM29.9569 19.4212C30.5286 19.4212 30.9959 18.9837 30.9959 18.4468C30.9959 17.9049 30.5286 17.4674 29.9569 17.4674C29.3802 17.4674 28.9128 17.9049 28.9128 18.4468C28.9128 18.9837 29.3802 19.4212 29.9569 19.4212ZM36.0234 31.1343C38.0867 31.1343 39.608 30.1897 39.608 28.2656V20.505H37.8331V21.7678H37.7337C37.4602 21.2159 36.8885 20.4056 35.5412 20.4056C33.7763 20.4056 32.3892 21.7877 32.3892 24.2983C32.3892 26.7891 33.7763 28.032 35.5362 28.032C36.8438 28.032 37.4553 27.331 37.7337 26.7692H37.8232V28.2159C37.8232 29.3097 37.0774 29.772 36.0533 29.772C34.9695 29.772 34.4922 29.26 34.2734 28.8424L32.6527 29.2351C32.9808 30.2742 34.0796 31.1343 36.0234 31.1343ZM36.0384 26.6201C34.8502 26.6201 34.2237 25.6953 34.2237 24.2884C34.2237 22.9013 34.8402 21.8821 36.0384 21.8821C37.1967 21.8821 37.8331 22.8416 37.8331 24.2884C37.8331 25.7451 37.1868 26.6201 36.0384 26.6201ZM43.2521 23.6669C43.2521 22.5632 43.9183 21.9269 44.8679 21.9269C45.7976 21.9269 46.3544 22.5384 46.3544 23.5576V28.1414H48.1541V23.2791C48.1591 21.4496 47.1151 20.4056 45.5391 20.4056C44.3956 20.4056 43.6101 20.9524 43.2621 21.8026H43.1726V20.505H41.4524V28.1414H43.2521V23.6669ZM58.3235 24.9297C58.3235 26.0931 57.4933 26.6698 56.6978 26.6698C55.8328 26.6698 55.256 26.0583 55.256 25.0888V20.505H53.4563V25.3672C53.4563 27.2017 54.5004 28.2408 56.0018 28.2408C57.1453 28.2408 57.9507 27.6392 58.2987 26.7841H58.3782V28.1414H60.1232V20.505H58.3235V24.9297ZM61.9739 31.005H63.7736V26.9382H63.8482C64.1316 27.4951 64.7232 28.2756 66.0357 28.2756C67.8354 28.2756 69.1827 26.8487 69.1827 24.3331C69.1827 21.7877 67.7956 20.4056 66.0307 20.4056C64.6834 20.4056 64.1216 21.2159 63.8482 21.7678H63.7438V20.505H61.9739V31.005ZM63.7388 24.3232C63.7388 22.8416 64.3752 21.8821 65.5336 21.8821C66.7317 21.8821 67.3482 22.9013 67.3482 24.3232C67.3482 25.755 66.7218 26.799 65.5336 26.799C64.3851 26.799 63.7388 25.8047 63.7388 24.3232Z" fill="#5648F1"/>
</svg>
