<svg width="17" height="17" viewBox="0 0 17 17" fill="none" xmlns="http://www.w3.org/2000/svg">
<path fill-rule="evenodd" clip-rule="evenodd" d="M5.87187 0.433301C6.27187 0.0333008 6.87187 0.0333008 7.27187 0.433301L9.37187 2.5333C9.77188 2.9333 9.77188 3.5333 9.37187 3.9333L8.47188 4.8333C8.07187 5.2333 7.47188 5.2333 7.07188 4.8333L4.97188 2.7333C4.57188 2.3333 4.57188 1.7333 4.97188 1.3333L5.87187 0.433301ZM8.97188 5.9333C8.57188 6.3333 8.57188 6.9333 8.97188 7.3333L9.47188 7.8333C9.87187 8.2333 10.4719 8.2333 10.8719 7.8333L15.3719 3.3333C15.7719 2.9333 15.7719 2.3333 15.3719 1.9333L14.8719 1.4333C14.4719 1.0333 13.8719 1.0333 13.4719 1.4333L8.97188 5.9333ZM1.67188 8.1333C1.07187 8.1333 0.671875 8.5333 0.671875 9.1333C0.671875 13.0333 3.77187 16.1333 7.67188 16.1333C8.27187 16.1333 8.67188 15.7333 8.67188 15.1333C8.67188 14.5333 8.27187 14.1333 7.67188 14.1333C4.87187 14.1333 2.67188 11.9333 2.67188 9.1333C2.67188 8.5333 2.27188 8.1333 1.67188 8.1333ZM4.67188 8.1333C4.07188 8.1333 3.67188 8.5333 3.67188 9.1333C3.67188 11.3333 5.47188 13.1333 7.67188 13.1333C8.27187 13.1333 8.67188 12.7333 8.67188 12.1333C8.67188 11.5333 8.27187 11.1333 7.67188 11.1333C6.57188 11.1333 5.67188 10.2333 5.67188 9.1333C5.67188 8.5333 5.27187 8.1333 4.67188 8.1333ZM7.67188 10.1333C7.07188 10.1333 6.67188 9.7333 6.67188 9.1333C6.67188 8.5333 7.07188 8.1333 7.67188 8.1333C8.27187 8.1333 8.67188 8.5333 8.67188 9.1333C8.67188 9.7333 8.27187 10.1333 7.67188 10.1333ZM14.2719 7.4333C13.8719 7.0333 13.2719 7.0333 12.8719 7.4333L11.9719 8.3333C11.5719 8.7333 11.5719 9.3333 11.9719 9.7333L14.0719 11.8333C14.4719 12.2333 15.0719 12.2333 15.4719 11.8333L16.3719 10.9333C16.7719 10.5333 16.7719 9.9333 16.3719 9.5333L14.2719 7.4333Z" fill="#5648F1"/>
</svg>
