<svg width="20" height="17" viewBox="0 0 20 17" fill="none" xmlns="http://www.w3.org/2000/svg">
<path fill-rule="evenodd" clip-rule="evenodd" d="M18.7366 0.778027C17.9753 1.24013 17.1341 1.57621 16.235 1.75603C15.5187 0.972194 14.4951 0.482422 13.3619 0.482422C11.1897 0.482422 9.42682 2.28986 9.42682 4.51894C9.42682 4.83504 9.46064 5.14243 9.52826 5.43803C6.25663 5.26948 3.35642 3.6644 1.41373 1.21913C1.07458 1.81751 0.88092 2.5117 0.88092 3.25045C0.88092 4.65061 1.57562 5.88631 2.63252 6.61021C1.98803 6.59074 1.37991 6.40733 0.848132 6.1066V6.1563C0.848132 8.11282 2.20525 9.74505 4.00757 10.1144C3.67764 10.2092 3.32927 10.2563 2.97014 10.2563C2.71654 10.2563 2.46909 10.2323 2.22933 10.1851C2.73037 11.7882 4.18329 12.9557 5.9062 12.9865C4.55933 14.07 2.86101 14.7155 1.0172 14.7155C0.699561 14.7155 0.385513 14.6971 0.078125 14.6602C1.81999 15.8037 3.89025 16.4722 6.11267 16.4722C13.3542 16.4722 17.3129 10.3224 17.3129 4.98771C17.3129 4.81198 17.3098 4.63677 17.3031 4.46464C18.0721 3.89494 18.7402 3.18488 19.2658 2.37542C18.5609 2.69613 17.8016 2.91335 17.0055 3.01069C17.8185 2.5117 18.4425 1.72017 18.7366 0.778027Z" fill="#5648F1"/>
</svg>
