<svg width="33" height="33" viewBox="0 0 33 33" fill="none" xmlns="http://www.w3.org/2000/svg">
<rect x="0.0708008" y="0.529907" width="32" height="32" rx="16" fill="white"/>
<path d="M17.4808 16.5299L20.7708 13.2399C20.9608 13.0599 21.0708 12.8099 21.0708 12.5299C21.0708 11.9799 20.6208 11.5299 20.0708 11.5299C19.7908 11.5299 19.5408 11.6399 19.3608 11.8199L16.0708 15.1199L12.7808 11.8199C12.6008 11.6399 12.3508 11.5299 12.0708 11.5299C11.5208 11.5299 11.0708 11.9799 11.0708 12.5299C11.0708 12.8099 11.1808 13.0599 11.3608 13.2399L14.6608 16.5299L11.3708 19.8199C11.1808 19.9999 11.0708 20.2499 11.0708 20.5299C11.0708 21.0799 11.5208 21.5299 12.0708 21.5299C12.3508 21.5299 12.6008 21.4199 12.7808 21.2399L16.0708 17.9399L19.3608 21.2299C19.5408 21.4199 19.7908 21.5299 20.0708 21.5299C20.6208 21.5299 21.0708 21.0799 21.0708 20.5299C21.0708 20.2499 20.9608 19.9999 20.7808 19.8199L17.4808 16.5299Z" fill="black"/>
<mask id="mask0" mask-type="alpha" maskUnits="userSpaceOnUse" x="11" y="11" width="11" height="11">
<path d="M17.4808 16.5299L20.7708 13.2399C20.9608 13.0599 21.0708 12.8099 21.0708 12.5299C21.0708 11.9799 20.6208 11.5299 20.0708 11.5299C19.7908 11.5299 19.5408 11.6399 19.3608 11.8199L16.0708 15.1199L12.7808 11.8199C12.6008 11.6399 12.3508 11.5299 12.0708 11.5299C11.5208 11.5299 11.0708 11.9799 11.0708 12.5299C11.0708 12.8099 11.1808 13.0599 11.3608 13.2399L14.6608 16.5299L11.3708 19.8199C11.1808 19.9999 11.0708 20.2499 11.0708 20.5299C11.0708 21.0799 11.5208 21.5299 12.0708 21.5299C12.3508 21.5299 12.6008 21.4199 12.7808 21.2399L16.0708 17.9399L19.3608 21.2299C19.5408 21.4199 19.7908 21.5299 20.0708 21.5299C20.6208 21.5299 21.0708 21.0799 21.0708 20.5299C21.0708 20.2499 20.9608 19.9999 20.7808 19.8199L17.4808 16.5299Z" fill="white"/>
</mask>
<g mask="url(#mask0)">
<rect x="8.0708" y="8.52991" width="16" height="16" fill="#5648F1"/>
</g>
</svg>
