<svg width="289" height="81" viewBox="0 0 289 81" fill="none" xmlns="http://www.w3.org/2000/svg">
<circle cx="48.3604" cy="38.5073" r="24.3604" fill="#5648F1"/>
<path d="M50.9994 27.1884C51.082 26.5276 50.7191 25.8915 50.1083 25.6264C49.4975 25.3612 48.785 25.5305 48.3587 26.042L36.8538 39.8479C36.4812 40.2951 36.4008 40.9174 36.6477 41.4445C36.8946 41.9715 37.4241 42.3082 38.0061 42.3082H46.6614L45.7216 49.8261C45.639 50.4868 46.0019 51.123 46.6127 51.3881C47.2236 51.6533 47.9361 51.484 48.3624 50.9724L59.8673 37.1665C60.2399 36.7194 60.3202 36.0971 60.0733 35.57C59.8265 35.0429 59.297 34.7063 58.715 34.7063H50.0597L50.9994 27.1884Z" stroke="white" stroke-width="3" stroke-linecap="round" stroke-linejoin="round"/>
<path opacity="0.7" d="M91.8816 44.2294C88.9836 44.2294 86.9136 41.9754 86.9136 38.7784C86.9136 35.5814 88.9606 33.3274 91.8816 33.3274C93.9976 33.3274 95.8376 34.7764 96.2976 36.8004L99.9316 36.3864C99.3336 32.6834 95.9296 30.0154 91.7896 30.0154C86.7296 30.0154 83.0496 33.6954 83.0496 38.7784C83.0496 43.8614 86.7296 47.5414 91.7896 47.5414C95.9756 47.5414 99.3796 44.9424 99.9316 41.3314L96.3206 40.8484C95.8146 42.8034 93.9516 44.2294 91.8816 44.2294ZM112.848 46.9664V35.1904H109.398V41.8144C109.398 43.3094 108.294 44.3904 106.937 44.3904C105.58 44.3904 104.752 43.3784 104.752 41.9524V35.1904H101.302V42.5504C101.302 45.3794 103.096 47.4264 105.741 47.4264C107.282 47.4264 108.662 46.6444 109.49 45.3564V46.9664H112.848ZM114.817 29.9004V46.9664H118.267V29.9004H114.817ZM121.138 43.1484C121.138 45.6554 122.656 47.4264 125.002 47.4264C125.738 47.4264 126.658 47.2884 127.371 47.0584V44.2754C126.98 44.3904 126.474 44.4594 126.152 44.4594C125.186 44.4594 124.588 43.7924 124.588 42.8034V37.8124H127.256V35.1904H124.588V32.2234H121.69L121.299 35.1904H119.482V37.8124H121.138V43.1484ZM140.148 46.9664V35.1904H136.698V41.8144C136.698 43.3094 135.594 44.3904 134.237 44.3904C132.88 44.3904 132.052 43.3784 132.052 41.9524V35.1904H128.602V42.5504C128.602 45.3794 130.396 47.4264 133.041 47.4264C134.582 47.4264 135.962 46.6444 136.79 45.3564V46.9664H140.148ZM142.14 35.1904V46.9664H145.59V40.7104C145.59 38.9394 146.579 37.6974 148.074 37.6974C148.58 37.6974 149.362 37.8354 150.006 38.1114V35.0524C149.546 34.8684 149.063 34.7534 148.603 34.7534C147.315 34.7534 146.142 35.5124 145.452 36.6854V35.1904H142.14ZM154.013 39.9744C154.312 38.4104 155.37 37.3754 156.888 37.3754C158.452 37.3754 159.602 38.4794 159.809 39.9744H154.013ZM150.471 40.9864C150.471 44.7814 153.139 47.4264 156.934 47.4264C159.809 47.4264 162.293 45.7474 162.868 43.4474L159.763 43.0104C159.395 44.0454 158.314 44.7814 157.026 44.7814C155.462 44.7814 154.335 43.7004 154.036 42.0444L163.259 42.0674C163.305 41.8144 163.305 41.3314 163.305 41.0324C163.305 37.3064 160.729 34.7304 156.957 34.7304C153.162 34.7304 150.471 37.3064 150.471 40.9864ZM168.966 46.9664V40.0434H175.728V46.9664H179.592V30.5904H175.728V36.9154H168.966V30.5904H165.102V46.9664H168.966ZM187.931 44.3904C186.137 44.3904 184.849 42.9874 184.849 41.0784C184.849 39.1694 186.137 37.7664 187.931 37.7664C189.725 37.7664 191.013 39.1694 191.013 41.0784C191.013 42.9874 189.725 44.3904 187.931 44.3904ZM191.036 36.8234C190.116 35.5124 188.713 34.7304 187.034 34.7304C183.722 34.7304 181.399 37.3524 181.399 41.0784C181.399 44.8044 183.722 47.4264 187.034 47.4264C188.713 47.4264 190.116 46.6444 191.036 45.3334V46.9664H194.486V35.1904H191.036V36.8234ZM202.359 34.7304C198.633 34.7304 195.942 37.3984 195.942 41.0784C195.942 44.7584 198.656 47.4264 202.359 47.4264C205.395 47.4264 207.971 45.4714 208.408 42.7574L205.188 42.3434C204.866 43.6084 203.739 44.5284 202.382 44.5284C200.68 44.5284 199.392 43.0794 199.392 41.0784C199.392 39.0774 200.703 37.6284 202.382 37.6284C203.693 37.6284 204.866 38.5484 205.165 39.8134L208.385 39.3994C208.017 36.6854 205.441 34.7304 202.359 34.7304ZM209.823 46.9664H213.273V41.9064L217.39 46.9664H221.599L216.332 40.7104L221.438 35.1904H217.252L213.273 39.5374V29.9004H209.823V46.9664Z" fill="#150041"/>
</svg>
