<svg width="96" height="81" viewBox="0 0 96 81" fill="none" xmlns="http://www.w3.org/2000/svg">
<circle cx="47.8941" cy="38.5692" r="24.3604" fill="#5648F1"/>
<path d="M50.5329 27.2503C50.6155 26.5895 50.2526 25.9534 49.6418 25.6883C49.0309 25.4231 48.3184 25.5924 47.8921 26.1039L36.3872 39.9098C36.0146 40.357 35.9343 40.9793 36.1812 41.5063C36.428 42.0334 36.9575 42.3701 37.5396 42.3701H46.1948L45.2551 49.888C45.1725 50.5487 45.5354 51.1848 46.1462 51.45C46.757 51.7151 47.4695 51.5459 47.8958 51.0343L59.4007 37.2284C59.7733 36.7813 59.8537 36.159 59.6068 35.6319C59.3599 35.1048 58.8304 34.7681 58.2484 34.7681H49.5931L50.5329 27.2503Z" stroke="white" stroke-width="3" stroke-linecap="round" stroke-linejoin="round"/>
</svg>
