<svg width="162" height="40" viewBox="0 0 162 40" fill="none" xmlns="http://www.w3.org/2000/svg">
<rect x="1.16406" y="1.18604" width="159.684" height="38" rx="19" fill="#5648F1" stroke="#5648F1"/>
<path d="M46.8022 14.6092H44.9677V21.5495H44.8782L40.0856 14.6092H38.435V24.791H40.2795V17.8556H40.364L45.1616 24.791H46.8022V14.6092ZM52.1131 24.9402C53.893 24.9402 55.116 24.0701 55.4341 22.7427L53.7537 22.5538C53.5101 23.2001 52.9135 23.5382 52.138 23.5382C50.9746 23.5382 50.204 22.7725 50.1891 21.465H55.5087V20.9132C55.5087 18.2335 53.8979 17.0552 52.0187 17.0552C49.8312 17.0552 48.4043 18.661 48.4043 21.0176C48.4043 23.4139 49.8113 24.9402 52.1131 24.9402ZM50.1941 20.252C50.2488 19.2775 50.9697 18.4572 52.0435 18.4572C53.0776 18.4572 53.7736 19.2129 53.7836 20.252H50.1941ZM58.5662 24.791H60.4455L61.8773 19.6305H61.9817L63.4135 24.791H65.2878L67.4505 17.1547H65.611L64.2885 22.4941H64.214L62.8418 17.1547H61.0272L59.655 22.524H59.5854L58.2431 17.1547H56.4086L58.5662 24.791ZM80.9745 18.0446C80.6612 15.7825 78.9212 14.47 76.6641 14.47C74.0043 14.47 72.0007 16.4089 72.0007 19.7001C72.0007 22.9863 73.9794 24.9302 76.6641 24.9302C79.0852 24.9302 80.6911 23.3642 80.9745 21.4203L79.1151 21.4103C78.8814 22.6035 77.907 23.2747 76.6889 23.2747C75.0384 23.2747 73.8551 22.0368 73.8551 19.7001C73.8551 17.4032 75.0284 16.1255 76.6939 16.1255C77.9318 16.1255 78.9013 16.8265 79.1151 18.0446H80.9745ZM85.915 24.9402C88.1522 24.9402 89.5741 23.3642 89.5741 21.0027C89.5741 18.6362 88.1522 17.0552 85.915 17.0552C83.6778 17.0552 82.2559 18.6362 82.2559 21.0027C82.2559 23.3642 83.6778 24.9402 85.915 24.9402ZM85.9249 23.4984C84.687 23.4984 84.0805 22.3947 84.0805 20.9977C84.0805 19.6007 84.687 18.4821 85.9249 18.4821C87.143 18.4821 87.7495 19.6007 87.7495 20.9977C87.7495 22.3947 87.143 23.4984 85.9249 23.4984ZM92.9013 14.6092H91.1016V24.791H92.9013V14.6092ZM96.5517 14.6092H94.752V24.791H96.5517V14.6092ZM101.783 24.9402C103.563 24.9402 104.786 24.0701 105.104 22.7427L103.424 22.5538C103.18 23.2001 102.583 23.5382 101.808 23.5382C100.645 23.5382 99.874 22.7725 99.859 21.465H105.179V20.9132C105.179 18.2335 103.568 17.0552 101.689 17.0552C99.5011 17.0552 98.0742 18.661 98.0742 21.0176C98.0742 23.4139 99.4812 24.9402 101.783 24.9402ZM99.864 20.252C99.9187 19.2775 100.64 18.4572 101.713 18.4572C102.748 18.4572 103.444 19.2129 103.453 20.252H99.864ZM110.032 24.9402C111.951 24.9402 113.174 23.8017 113.303 22.1809H111.583C111.429 23.0012 110.838 23.4735 110.047 23.4735C108.923 23.4735 108.198 22.5339 108.198 20.9728C108.198 19.4316 108.938 18.5069 110.047 18.5069C110.912 18.5069 111.444 19.0637 111.583 19.7995H113.303C113.179 18.144 111.887 17.0552 110.022 17.0552C107.785 17.0552 106.373 18.671 106.373 21.0027C106.373 23.3145 107.75 24.9402 110.032 24.9402ZM118.594 17.1547H117.088V15.3251H115.288V17.1547H114.205V18.5467H115.288V22.7924C115.278 24.2292 116.322 24.9352 117.675 24.8954C118.187 24.8805 118.54 24.7811 118.734 24.7164L118.43 23.3095C118.331 23.3343 118.127 23.3791 117.903 23.3791C117.451 23.3791 117.088 23.22 117.088 22.4941V18.5467H118.594V17.1547ZM120.1 24.791H121.899V17.1547H120.1V24.791ZM121.004 16.0708C121.576 16.0708 122.044 15.6333 122.044 15.0964C122.044 14.5545 121.576 14.117 121.004 14.117C120.428 14.117 119.96 14.5545 119.96 15.0964C119.96 15.6333 120.428 16.0708 121.004 16.0708ZM127.081 24.9402C129.318 24.9402 130.74 23.3642 130.74 21.0027C130.74 18.6362 129.318 17.0552 127.081 17.0552C124.844 17.0552 123.422 18.6362 123.422 21.0027C123.422 23.3642 124.844 24.9402 127.081 24.9402ZM127.091 23.4984C125.853 23.4984 125.246 22.3947 125.246 20.9977C125.246 19.6007 125.853 18.4821 127.091 18.4821C128.309 18.4821 128.916 19.6007 128.916 20.9977C128.916 22.3947 128.309 23.4984 127.091 23.4984ZM134.067 20.3166C134.067 19.2129 134.734 18.5765 135.683 18.5765C136.613 18.5765 137.17 19.188 137.17 20.2072V24.791H138.969V19.9288C138.974 18.0993 137.93 17.0552 136.354 17.0552C135.211 17.0552 134.425 17.6021 134.077 18.4522H133.988V17.1547H132.268V24.791H134.067V20.3166Z" fill="white"/>
<path fill-rule="evenodd" clip-rule="evenodd" d="M26.1645 14.8716C23.228 14.8716 20.8496 17.25 20.8496 20.1864C20.8496 23.1229 23.228 25.5013 26.1645 25.5013C29.1009 25.5013 31.4793 23.1229 31.4793 20.1864C31.4793 17.25 29.1009 14.8716 26.1645 14.8716ZM28.1572 19.5217H26.8285V18.1929C26.8285 17.8275 26.5295 17.5286 26.1641 17.5286C25.7987 17.5286 25.4998 17.8275 25.4998 18.1929V19.5217H24.1711C23.8057 19.5217 23.5067 19.8206 23.5067 20.186C23.5067 20.5514 23.8057 20.8504 24.1711 20.8504H25.4998V22.1791C25.4998 22.5445 25.7987 22.8434 26.1641 22.8434C26.5295 22.8434 26.8285 22.5445 26.8285 22.1791V20.8504H28.1572C28.5226 20.8504 28.8216 20.5514 28.8216 20.186C28.8216 19.8206 28.5226 19.5217 28.1572 19.5217ZM22.1778 20.186C22.1778 22.385 23.9649 24.1722 26.164 24.1722C28.3696 24.1722 30.1501 22.385 30.1501 20.186C30.1501 17.987 28.363 16.1999 26.164 16.1999C23.9649 16.1999 22.1778 17.987 22.1778 20.186Z" fill="black"/>
<mask id="mask0" mask-type="alpha" maskUnits="userSpaceOnUse" x="20" y="14" width="12" height="12">
<path fill-rule="evenodd" clip-rule="evenodd" d="M26.1645 14.8716C23.228 14.8716 20.8496 17.25 20.8496 20.1864C20.8496 23.1229 23.228 25.5013 26.1645 25.5013C29.1009 25.5013 31.4793 23.1229 31.4793 20.1864C31.4793 17.25 29.1009 14.8716 26.1645 14.8716ZM28.1572 19.5217H26.8285V18.1929C26.8285 17.8275 26.5295 17.5286 26.1641 17.5286C25.7987 17.5286 25.4998 17.8275 25.4998 18.1929V19.5217H24.1711C23.8057 19.5217 23.5067 19.8206 23.5067 20.186C23.5067 20.5514 23.8057 20.8504 24.1711 20.8504H25.4998V22.1791C25.4998 22.5445 25.7987 22.8434 26.1641 22.8434C26.5295 22.8434 26.8285 22.5445 26.8285 22.1791V20.8504H28.1572C28.5226 20.8504 28.8216 20.5514 28.8216 20.186C28.8216 19.8206 28.5226 19.5217 28.1572 19.5217ZM22.1778 20.186C22.1778 22.385 23.9649 24.1722 26.164 24.1722C28.3696 24.1722 30.1501 22.385 30.1501 20.186C30.1501 17.987 28.363 16.1999 26.164 16.1999C23.9649 16.1999 22.1778 17.987 22.1778 20.186Z" fill="white"/>
</mask>
<g mask="url(#mask0)">
<rect x="20.8457" y="14.8677" width="10.6364" height="10.6364" fill="white"/>
</g>
</svg>
