<svg width="89" height="45" viewBox="0 0 89 45" fill="none" xmlns="http://www.w3.org/2000/svg">
<rect x="0.00927734" y="0.638306" width="88" height="44" rx="22" fill="#5648F1"/>
<path d="M25.1651 20.7585H26.9399C26.9051 19.0384 25.4385 17.8203 23.2709 17.8203C21.1331 17.8203 19.5273 19.0235 19.5323 20.8232C19.5323 22.2848 20.5713 23.125 22.2468 23.5576L23.4051 23.8558C24.5039 24.1343 25.2297 24.4773 25.2347 25.2678C25.2297 26.1378 24.4044 26.7195 23.2013 26.7195C22.0479 26.7195 21.153 26.2024 21.0784 25.1335H19.2638C19.3384 27.157 20.8448 28.2955 23.2162 28.2955C25.6573 28.2955 27.0742 27.0774 27.0791 25.2827C27.0742 23.5178 25.6175 22.7124 24.0862 22.3495L23.1317 22.1108C22.2965 21.912 21.3916 21.559 21.4016 20.7088C21.4066 19.9432 22.0926 19.3814 23.246 19.3814C24.3448 19.3814 25.0706 19.8935 25.1651 20.7585ZM28.644 28.1414H30.4437V20.505H28.644V28.1414ZM29.5488 19.4212C30.1205 19.4212 30.5878 18.9837 30.5878 18.4468C30.5878 17.9049 30.1205 17.4674 29.5488 17.4674C28.9721 17.4674 28.5047 17.9049 28.5047 18.4468C28.5047 18.9837 28.9721 19.4212 29.5488 19.4212ZM35.6154 31.1343C37.6786 31.1343 39.1999 30.1897 39.1999 28.2656V20.505H37.425V21.7678H37.3256C37.0522 21.2159 36.4804 20.4056 35.1331 20.4056C33.3682 20.4056 31.9811 21.7877 31.9811 24.2983C31.9811 26.7891 33.3682 28.032 35.1282 28.032C36.4357 28.032 37.0472 27.331 37.3256 26.7692H37.4151V28.2159C37.4151 29.3097 36.6693 29.772 35.6452 29.772C34.5614 29.772 34.0841 29.26 33.8654 28.8424L32.2446 29.2351C32.5728 30.2742 33.6715 31.1343 35.6154 31.1343ZM35.6303 26.6201C34.4421 26.6201 33.8157 25.6953 33.8157 24.2884C33.8157 22.9013 34.4321 21.8821 35.6303 21.8821C36.7887 21.8821 37.425 22.8416 37.425 24.2884C37.425 25.7451 36.7787 26.6201 35.6303 26.6201ZM42.8441 23.6669C42.8441 22.5632 43.5103 21.9269 44.4598 21.9269C45.3895 21.9269 45.9463 22.5384 45.9463 23.5576V28.1414H47.746V23.2791C47.751 21.4496 46.707 20.4056 45.131 20.4056C43.9875 20.4056 43.202 20.9524 42.854 21.8026H42.7645V20.505H41.0443V28.1414H42.8441V23.6669ZM57.9154 24.9297C57.9154 26.0931 57.0852 26.6698 56.2897 26.6698C55.4247 26.6698 54.848 26.0583 54.848 25.0888V20.505H53.0483V25.3672C53.0483 27.2017 54.0923 28.2408 55.5937 28.2408C56.7372 28.2408 57.5426 27.6392 57.8906 26.7841H57.9701V28.1414H59.7152V20.505H57.9154V24.9297ZM61.5658 31.005H63.3655V26.9382H63.4401C63.7235 27.4951 64.3151 28.2756 65.6276 28.2756C67.4273 28.2756 68.7746 26.8487 68.7746 24.3331C68.7746 21.7877 67.3876 20.4056 65.6226 20.4056C64.2753 20.4056 63.7136 21.2159 63.4401 21.7678H63.3357V20.505H61.5658V31.005ZM63.3307 24.3232C63.3307 22.8416 63.9671 21.8821 65.1255 21.8821C66.3236 21.8821 66.9401 22.9013 66.9401 24.3232C66.9401 25.755 66.3137 26.799 65.1255 26.799C63.9771 26.799 63.3307 25.8047 63.3307 24.3232Z" fill="white"/>
</svg>
